<mxfile host="app.diagrams.net" modified="2021-06-24T12:30:47.835Z" agent="5.0 (X11; Linux x86_64) AppleWebKit/537.36 (KHTML, like Gecko) Chrome/90.0.4430.72 Safari/537.36" etag="lXHxvoPHidjNvdSY_nc8" version="14.8.0" type="github">
  <diagram id="b15Hza7nnjam9g2sz_xK" name="Page-1">
    <mxGraphModel dx="1211" dy="533" grid="1" gridSize="10" guides="1" tooltips="1" connect="1" arrows="1" fold="1" page="1" pageScale="1" pageWidth="827" pageHeight="1169" math="0" shadow="0">
      <root>
        <mxCell id="0" />
        <mxCell id="1" parent="0" />
        <mxCell id="3d0mFpOl1IhNJcDzCBlv-16" value="Tracks" style="swimlane;fontStyle=0;childLayout=stackLayout;horizontal=1;startSize=26;horizontalStack=0;resizeParent=1;resizeParentMax=0;resizeLast=0;collapsible=1;marginBottom=0;align=center;fontSize=14;" parent="1" vertex="1">
          <mxGeometry x="480" y="490" width="120" height="146" as="geometry" />
        </mxCell>
        <mxCell id="3d0mFpOl1IhNJcDzCBlv-17" value="Id" style="text;strokeColor=none;fillColor=none;spacingLeft=4;spacingRight=4;overflow=hidden;rotatable=0;points=[[0,0.5],[1,0.5]];portConstraint=eastwest;fontSize=12;" parent="3d0mFpOl1IhNJcDzCBlv-16" vertex="1">
          <mxGeometry y="26" width="120" height="30" as="geometry" />
        </mxCell>
        <mxCell id="wDBYmYoZNNzqzqZVo3pK-1" value="AlbumId" style="text;strokeColor=none;fillColor=none;spacingLeft=4;spacingRight=4;overflow=hidden;rotatable=0;points=[[0,0.5],[1,0.5]];portConstraint=eastwest;fontSize=12;" vertex="1" parent="3d0mFpOl1IhNJcDzCBlv-16">
          <mxGeometry y="56" width="120" height="30" as="geometry" />
        </mxCell>
        <mxCell id="3d0mFpOl1IhNJcDzCBlv-22" value="Name" style="text;strokeColor=none;fillColor=none;spacingLeft=4;spacingRight=4;overflow=hidden;rotatable=0;points=[[0,0.5],[1,0.5]];portConstraint=eastwest;fontSize=12;" parent="3d0mFpOl1IhNJcDzCBlv-16" vertex="1">
          <mxGeometry y="86" width="120" height="30" as="geometry" />
        </mxCell>
        <mxCell id="3d0mFpOl1IhNJcDzCBlv-21" value="Continuity" style="text;strokeColor=none;fillColor=none;spacingLeft=4;spacingRight=4;overflow=hidden;rotatable=0;points=[[0,0.5],[1,0.5]];portConstraint=eastwest;fontSize=12;" parent="3d0mFpOl1IhNJcDzCBlv-16" vertex="1">
          <mxGeometry y="116" width="120" height="30" as="geometry" />
        </mxCell>
        <mxCell id="OZKbLnXy2vZ4UF3C5Ezq-23" style="edgeStyle=orthogonalEdgeStyle;rounded=0;orthogonalLoop=1;jettySize=auto;html=1;exitX=1;exitY=0.5;exitDx=0;exitDy=0;" parent="3d0mFpOl1IhNJcDzCBlv-16" source="3d0mFpOl1IhNJcDzCBlv-17" target="3d0mFpOl1IhNJcDzCBlv-17" edge="1">
          <mxGeometry relative="1" as="geometry" />
        </mxCell>
        <mxCell id="3d0mFpOl1IhNJcDzCBlv-24" value="Albums" style="swimlane;fontStyle=0;childLayout=stackLayout;horizontal=1;startSize=26;horizontalStack=0;resizeParent=1;resizeParentMax=0;resizeLast=0;collapsible=1;marginBottom=0;align=center;fontSize=14;" parent="1" vertex="1">
          <mxGeometry x="280" y="480" width="120" height="116" as="geometry" />
        </mxCell>
        <mxCell id="3d0mFpOl1IhNJcDzCBlv-25" value="Id" style="text;strokeColor=none;fillColor=none;spacingLeft=4;spacingRight=4;overflow=hidden;rotatable=0;points=[[0,0.5],[1,0.5]];portConstraint=eastwest;fontSize=12;" parent="3d0mFpOl1IhNJcDzCBlv-24" vertex="1">
          <mxGeometry y="26" width="120" height="30" as="geometry" />
        </mxCell>
        <mxCell id="3d0mFpOl1IhNJcDzCBlv-26" value="Name" style="text;strokeColor=none;fillColor=none;spacingLeft=4;spacingRight=4;overflow=hidden;rotatable=0;points=[[0,0.5],[1,0.5]];portConstraint=eastwest;fontSize=12;" parent="3d0mFpOl1IhNJcDzCBlv-24" vertex="1">
          <mxGeometry y="56" width="120" height="30" as="geometry" />
        </mxCell>
        <mxCell id="3d0mFpOl1IhNJcDzCBlv-27" value="Year" style="text;strokeColor=none;fillColor=none;spacingLeft=4;spacingRight=4;overflow=hidden;rotatable=0;points=[[0,0.5],[1,0.5]];portConstraint=eastwest;fontSize=12;" parent="3d0mFpOl1IhNJcDzCBlv-24" vertex="1">
          <mxGeometry y="86" width="120" height="30" as="geometry" />
        </mxCell>
        <mxCell id="3d0mFpOl1IhNJcDzCBlv-32" value="Artists" style="swimlane;fontStyle=0;childLayout=stackLayout;horizontal=1;startSize=26;horizontalStack=0;resizeParent=1;resizeParentMax=0;resizeLast=0;collapsible=1;marginBottom=0;align=center;fontSize=14;" parent="1" vertex="1">
          <mxGeometry x="80" y="320" width="120" height="86" as="geometry" />
        </mxCell>
        <mxCell id="3d0mFpOl1IhNJcDzCBlv-33" value="Id" style="text;strokeColor=none;fillColor=none;spacingLeft=4;spacingRight=4;overflow=hidden;rotatable=0;points=[[0,0.5],[1,0.5]];portConstraint=eastwest;fontSize=12;" parent="3d0mFpOl1IhNJcDzCBlv-32" vertex="1">
          <mxGeometry y="26" width="120" height="30" as="geometry" />
        </mxCell>
        <mxCell id="3d0mFpOl1IhNJcDzCBlv-34" value="Name" style="text;strokeColor=none;fillColor=none;spacingLeft=4;spacingRight=4;overflow=hidden;rotatable=0;points=[[0,0.5],[1,0.5]];portConstraint=eastwest;fontSize=12;" parent="3d0mFpOl1IhNJcDzCBlv-32" vertex="1">
          <mxGeometry y="56" width="120" height="30" as="geometry" />
        </mxCell>
        <mxCell id="OZKbLnXy2vZ4UF3C5Ezq-3" value="ArtistsGenres" style="swimlane;fontStyle=0;childLayout=stackLayout;horizontal=1;startSize=26;horizontalStack=0;resizeParent=1;resizeParentMax=0;resizeLast=0;collapsible=1;marginBottom=0;align=center;fontSize=14;" parent="1" vertex="1">
          <mxGeometry x="280" y="320" width="120" height="86" as="geometry" />
        </mxCell>
        <mxCell id="OZKbLnXy2vZ4UF3C5Ezq-5" value="ArtistId" style="text;strokeColor=none;fillColor=none;spacingLeft=4;spacingRight=4;overflow=hidden;rotatable=0;points=[[0,0.5],[1,0.5]];portConstraint=eastwest;fontSize=12;" parent="OZKbLnXy2vZ4UF3C5Ezq-3" vertex="1">
          <mxGeometry y="26" width="120" height="30" as="geometry" />
        </mxCell>
        <mxCell id="OZKbLnXy2vZ4UF3C5Ezq-6" value="GenreId" style="text;strokeColor=none;fillColor=none;spacingLeft=4;spacingRight=4;overflow=hidden;rotatable=0;points=[[0,0.5],[1,0.5]];portConstraint=eastwest;fontSize=12;" parent="OZKbLnXy2vZ4UF3C5Ezq-3" vertex="1">
          <mxGeometry y="56" width="120" height="30" as="geometry" />
        </mxCell>
        <mxCell id="OZKbLnXy2vZ4UF3C5Ezq-7" value="Genres" style="swimlane;fontStyle=0;childLayout=stackLayout;horizontal=1;startSize=26;horizontalStack=0;resizeParent=1;resizeParentMax=0;resizeLast=0;collapsible=1;marginBottom=0;align=center;fontSize=14;" parent="1" vertex="1">
          <mxGeometry x="480" y="320" width="120" height="86" as="geometry" />
        </mxCell>
        <mxCell id="OZKbLnXy2vZ4UF3C5Ezq-8" value="Id" style="text;strokeColor=none;fillColor=none;spacingLeft=4;spacingRight=4;overflow=hidden;rotatable=0;points=[[0,0.5],[1,0.5]];portConstraint=eastwest;fontSize=12;" parent="OZKbLnXy2vZ4UF3C5Ezq-7" vertex="1">
          <mxGeometry y="26" width="120" height="30" as="geometry" />
        </mxCell>
        <mxCell id="OZKbLnXy2vZ4UF3C5Ezq-9" value="Name" style="text;strokeColor=none;fillColor=none;spacingLeft=4;spacingRight=4;overflow=hidden;rotatable=0;points=[[0,0.5],[1,0.5]];portConstraint=eastwest;fontSize=12;" parent="OZKbLnXy2vZ4UF3C5Ezq-7" vertex="1">
          <mxGeometry y="56" width="120" height="30" as="geometry" />
        </mxCell>
        <mxCell id="OZKbLnXy2vZ4UF3C5Ezq-11" value="*" style="text;html=1;strokeColor=none;fillColor=none;align=center;verticalAlign=middle;whiteSpace=wrap;rounded=0;" parent="1" vertex="1">
          <mxGeometry x="400" y="370" width="20" height="20" as="geometry" />
        </mxCell>
        <mxCell id="OZKbLnXy2vZ4UF3C5Ezq-12" value="1" style="text;html=1;strokeColor=none;fillColor=none;align=center;verticalAlign=middle;whiteSpace=wrap;rounded=0;" parent="1" vertex="1">
          <mxGeometry x="460" y="340" width="20" height="20" as="geometry" />
        </mxCell>
        <mxCell id="OZKbLnXy2vZ4UF3C5Ezq-14" value="1" style="text;html=1;strokeColor=none;fillColor=none;align=center;verticalAlign=middle;whiteSpace=wrap;rounded=0;" parent="1" vertex="1">
          <mxGeometry x="200" y="340" width="20" height="20" as="geometry" />
        </mxCell>
        <mxCell id="OZKbLnXy2vZ4UF3C5Ezq-17" value="AlbumsArtists" style="swimlane;fontStyle=0;childLayout=stackLayout;horizontal=1;startSize=26;horizontalStack=0;resizeParent=1;resizeParentMax=0;resizeLast=0;collapsible=1;marginBottom=0;align=center;fontSize=14;" parent="1" vertex="1">
          <mxGeometry x="80" y="480" width="120" height="86" as="geometry" />
        </mxCell>
        <mxCell id="OZKbLnXy2vZ4UF3C5Ezq-19" value="ArtistId" style="text;strokeColor=none;fillColor=none;spacingLeft=4;spacingRight=4;overflow=hidden;rotatable=0;points=[[0,0.5],[1,0.5]];portConstraint=eastwest;fontSize=12;" parent="OZKbLnXy2vZ4UF3C5Ezq-17" vertex="1">
          <mxGeometry y="26" width="120" height="30" as="geometry" />
        </mxCell>
        <mxCell id="OZKbLnXy2vZ4UF3C5Ezq-20" value="AlbumId" style="text;strokeColor=none;fillColor=none;spacingLeft=4;spacingRight=4;overflow=hidden;rotatable=0;points=[[0,0.5],[1,0.5]];portConstraint=eastwest;fontSize=12;" parent="OZKbLnXy2vZ4UF3C5Ezq-17" vertex="1">
          <mxGeometry y="56" width="120" height="30" as="geometry" />
        </mxCell>
        <mxCell id="OZKbLnXy2vZ4UF3C5Ezq-30" value="Collection" style="swimlane;fontStyle=0;childLayout=stackLayout;horizontal=1;startSize=26;horizontalStack=0;resizeParent=1;resizeParentMax=0;resizeLast=0;collapsible=1;marginBottom=0;align=center;fontSize=14;" parent="1" vertex="1">
          <mxGeometry x="80" y="656" width="120" height="116" as="geometry">
            <mxRectangle x="320" y="656" width="90" height="26" as="alternateBounds" />
          </mxGeometry>
        </mxCell>
        <mxCell id="OZKbLnXy2vZ4UF3C5Ezq-31" value="Id" style="text;strokeColor=none;fillColor=none;spacingLeft=4;spacingRight=4;overflow=hidden;rotatable=0;points=[[0,0.5],[1,0.5]];portConstraint=eastwest;fontSize=12;" parent="OZKbLnXy2vZ4UF3C5Ezq-30" vertex="1">
          <mxGeometry y="26" width="120" height="30" as="geometry" />
        </mxCell>
        <mxCell id="OZKbLnXy2vZ4UF3C5Ezq-33" value="Year" style="text;strokeColor=none;fillColor=none;spacingLeft=4;spacingRight=4;overflow=hidden;rotatable=0;points=[[0,0.5],[1,0.5]];portConstraint=eastwest;fontSize=12;" parent="OZKbLnXy2vZ4UF3C5Ezq-30" vertex="1">
          <mxGeometry y="56" width="120" height="30" as="geometry" />
        </mxCell>
        <mxCell id="OZKbLnXy2vZ4UF3C5Ezq-34" value="Name" style="text;strokeColor=none;fillColor=none;spacingLeft=4;spacingRight=4;overflow=hidden;rotatable=0;points=[[0,0.5],[1,0.5]];portConstraint=eastwest;fontSize=12;" parent="OZKbLnXy2vZ4UF3C5Ezq-30" vertex="1">
          <mxGeometry y="86" width="120" height="30" as="geometry" />
        </mxCell>
        <mxCell id="OZKbLnXy2vZ4UF3C5Ezq-36" value="CollectionTracks" style="swimlane;fontStyle=0;childLayout=stackLayout;horizontal=1;startSize=26;horizontalStack=0;resizeParent=1;resizeParentMax=0;resizeLast=0;collapsible=1;marginBottom=0;align=center;fontSize=14;" parent="1" vertex="1">
          <mxGeometry x="280" y="656" width="120" height="86" as="geometry" />
        </mxCell>
        <mxCell id="OZKbLnXy2vZ4UF3C5Ezq-38" value="CollectionId" style="text;strokeColor=none;fillColor=none;spacingLeft=4;spacingRight=4;overflow=hidden;rotatable=0;points=[[0,0.5],[1,0.5]];portConstraint=eastwest;fontSize=12;" parent="OZKbLnXy2vZ4UF3C5Ezq-36" vertex="1">
          <mxGeometry y="26" width="120" height="30" as="geometry" />
        </mxCell>
        <mxCell id="OZKbLnXy2vZ4UF3C5Ezq-39" value="TrackId" style="text;strokeColor=none;fillColor=none;spacingLeft=4;spacingRight=4;overflow=hidden;rotatable=0;points=[[0,0.5],[1,0.5]];portConstraint=eastwest;fontSize=12;" parent="OZKbLnXy2vZ4UF3C5Ezq-36" vertex="1">
          <mxGeometry y="56" width="120" height="30" as="geometry" />
        </mxCell>
        <mxCell id="OZKbLnXy2vZ4UF3C5Ezq-42" style="edgeStyle=orthogonalEdgeStyle;rounded=0;orthogonalLoop=1;jettySize=auto;html=1;exitX=0;exitY=0.5;exitDx=0;exitDy=0;entryX=0;entryY=1;entryDx=0;entryDy=0;" parent="1" source="OZKbLnXy2vZ4UF3C5Ezq-5" edge="1">
          <mxGeometry relative="1" as="geometry">
            <mxPoint x="200" y="360" as="targetPoint" />
            <Array as="points">
              <mxPoint x="240" y="360" />
            </Array>
          </mxGeometry>
        </mxCell>
        <mxCell id="OZKbLnXy2vZ4UF3C5Ezq-10" style="edgeStyle=orthogonalEdgeStyle;rounded=0;orthogonalLoop=1;jettySize=auto;html=1;exitX=1;exitY=0.5;exitDx=0;exitDy=0;entryX=0;entryY=0.5;entryDx=0;entryDy=0;" parent="1" source="OZKbLnXy2vZ4UF3C5Ezq-6" target="OZKbLnXy2vZ4UF3C5Ezq-8" edge="1">
          <mxGeometry relative="1" as="geometry">
            <mxPoint x="450" y="350" as="sourcePoint" />
          </mxGeometry>
        </mxCell>
        <mxCell id="OZKbLnXy2vZ4UF3C5Ezq-43" value="1" style="text;html=1;strokeColor=none;fillColor=none;align=center;verticalAlign=middle;whiteSpace=wrap;rounded=0;fontStyle=1" parent="1" vertex="1">
          <mxGeometry x="260" y="500" width="20" height="20" as="geometry" />
        </mxCell>
        <mxCell id="OZKbLnXy2vZ4UF3C5Ezq-44" value="*" style="text;html=1;strokeColor=none;fillColor=none;align=center;verticalAlign=middle;whiteSpace=wrap;rounded=0;" parent="1" vertex="1">
          <mxGeometry x="200" y="528" width="20" height="20" as="geometry" />
        </mxCell>
        <mxCell id="OZKbLnXy2vZ4UF3C5Ezq-45" value="*" style="text;html=1;strokeColor=none;fillColor=none;align=center;verticalAlign=middle;whiteSpace=wrap;rounded=0;" parent="1" vertex="1">
          <mxGeometry x="260" y="340" width="20" height="20" as="geometry" />
        </mxCell>
        <mxCell id="OZKbLnXy2vZ4UF3C5Ezq-46" value="1" style="text;html=1;strokeColor=none;fillColor=none;align=center;verticalAlign=middle;whiteSpace=wrap;rounded=0;" parent="1" vertex="1">
          <mxGeometry x="400" y="500" width="20" height="20" as="geometry" />
        </mxCell>
        <mxCell id="OZKbLnXy2vZ4UF3C5Ezq-48" value="1" style="text;html=1;strokeColor=none;fillColor=none;align=center;verticalAlign=middle;whiteSpace=wrap;rounded=0;" parent="1" vertex="1">
          <mxGeometry x="60" y="340" width="20" height="20" as="geometry" />
        </mxCell>
        <mxCell id="OZKbLnXy2vZ4UF3C5Ezq-49" value="*" style="text;html=1;strokeColor=none;fillColor=none;align=center;verticalAlign=middle;whiteSpace=wrap;rounded=0;" parent="1" vertex="1">
          <mxGeometry x="60" y="500" width="20" height="20" as="geometry" />
        </mxCell>
        <mxCell id="OZKbLnXy2vZ4UF3C5Ezq-50" value="1" style="text;html=1;strokeColor=none;fillColor=none;align=center;verticalAlign=middle;whiteSpace=wrap;rounded=0;" parent="1" vertex="1">
          <mxGeometry x="460" y="508" width="20" height="20" as="geometry" />
        </mxCell>
        <mxCell id="OZKbLnXy2vZ4UF3C5Ezq-53" value="*" style="text;html=1;strokeColor=none;fillColor=none;align=center;verticalAlign=middle;whiteSpace=wrap;rounded=0;" parent="1" vertex="1">
          <mxGeometry x="260" y="680" width="20" height="20" as="geometry" />
        </mxCell>
        <mxCell id="wDBYmYoZNNzqzqZVo3pK-2" style="edgeStyle=orthogonalEdgeStyle;rounded=0;orthogonalLoop=1;jettySize=auto;html=1;exitX=0;exitY=0.5;exitDx=0;exitDy=0;entryX=1;entryY=0.5;entryDx=0;entryDy=0;" edge="1" parent="1" source="wDBYmYoZNNzqzqZVo3pK-1" target="3d0mFpOl1IhNJcDzCBlv-25">
          <mxGeometry relative="1" as="geometry">
            <Array as="points">
              <mxPoint x="430" y="561" />
              <mxPoint x="430" y="521" />
            </Array>
          </mxGeometry>
        </mxCell>
        <mxCell id="OZKbLnXy2vZ4UF3C5Ezq-21" style="edgeStyle=orthogonalEdgeStyle;rounded=0;orthogonalLoop=1;jettySize=auto;html=1;exitX=0;exitY=0.5;exitDx=0;exitDy=0;entryX=0;entryY=0.5;entryDx=0;entryDy=0;" parent="1" source="OZKbLnXy2vZ4UF3C5Ezq-19" target="3d0mFpOl1IhNJcDzCBlv-33" edge="1">
          <mxGeometry relative="1" as="geometry" />
        </mxCell>
        <mxCell id="OZKbLnXy2vZ4UF3C5Ezq-22" style="edgeStyle=orthogonalEdgeStyle;rounded=0;orthogonalLoop=1;jettySize=auto;html=1;exitX=1;exitY=0.5;exitDx=0;exitDy=0;entryX=0;entryY=0.5;entryDx=0;entryDy=0;" parent="1" source="OZKbLnXy2vZ4UF3C5Ezq-20" target="3d0mFpOl1IhNJcDzCBlv-25" edge="1">
          <mxGeometry relative="1" as="geometry" />
        </mxCell>
        <mxCell id="wDBYmYoZNNzqzqZVo3pK-4" value="1" style="text;html=1;strokeColor=none;fillColor=none;align=center;verticalAlign=middle;whiteSpace=wrap;rounded=0;" vertex="1" parent="1">
          <mxGeometry x="460" y="540" width="20" height="20" as="geometry" />
        </mxCell>
        <mxCell id="OZKbLnXy2vZ4UF3C5Ezq-40" style="edgeStyle=orthogonalEdgeStyle;rounded=0;orthogonalLoop=1;jettySize=auto;html=1;exitX=1;exitY=0.5;exitDx=0;exitDy=0;entryX=0;entryY=0.5;entryDx=0;entryDy=0;" parent="1" source="OZKbLnXy2vZ4UF3C5Ezq-39" target="3d0mFpOl1IhNJcDzCBlv-17" edge="1">
          <mxGeometry relative="1" as="geometry">
            <Array as="points">
              <mxPoint x="450" y="727" />
              <mxPoint x="450" y="531" />
            </Array>
          </mxGeometry>
        </mxCell>
        <mxCell id="OZKbLnXy2vZ4UF3C5Ezq-41" style="edgeStyle=orthogonalEdgeStyle;rounded=0;orthogonalLoop=1;jettySize=auto;html=1;exitX=0;exitY=0.5;exitDx=0;exitDy=0;entryX=1;entryY=0.5;entryDx=0;entryDy=0;" parent="1" source="OZKbLnXy2vZ4UF3C5Ezq-38" target="OZKbLnXy2vZ4UF3C5Ezq-31" edge="1">
          <mxGeometry relative="1" as="geometry" />
        </mxCell>
        <mxCell id="wDBYmYoZNNzqzqZVo3pK-5" value="1" style="text;html=1;strokeColor=none;fillColor=none;align=center;verticalAlign=middle;whiteSpace=wrap;rounded=0;" vertex="1" parent="1">
          <mxGeometry x="200" y="670" width="20" height="20" as="geometry" />
        </mxCell>
        <mxCell id="wDBYmYoZNNzqzqZVo3pK-6" value="*" style="text;html=1;strokeColor=none;fillColor=none;align=center;verticalAlign=middle;whiteSpace=wrap;rounded=0;" vertex="1" parent="1">
          <mxGeometry x="400" y="704" width="20" height="20" as="geometry" />
        </mxCell>
      </root>
    </mxGraphModel>
  </diagram>
</mxfile>
